<svg xmlns="http://www.w3.org/2000/svg" viewBox="0 0 1000.0 480.0">
<rect width="100%" height="100%" fill="#F8FAFC"/>
<path id="turkey_minerals_v1::mineral_deposit::bor_eskisehir" d="M250.41 184.62 C250.41 181.31 253.10 178.62 256.41 178.62 C259.72 178.62 262.41 181.31 262.41 184.62 C262.41 187.93 259.72 190.62 256.41 190.62 C253.10 190.62 250.41 187.93 250.41 184.62 Z" fill="#CBD5E1" stroke="#334155" stroke-width="1.2"/>
<path id="turkey_minerals_v1::mineral_deposit::bor_kutahya" d="M219.64 214.15 C219.64 210.84 222.33 208.15 225.64 208.15 C228.95 208.15 231.64 210.84 231.64 214.15 C231.64 217.46 228.95 220.15 225.64 220.15 C222.33 220.15 219.64 217.46 219.64 214.15 Z" fill="#CBD5E1" stroke="#334155" stroke-width="1.2"/>
<path id="turkey_minerals_v1::mineral_deposit::komur_zonguldak" d="M317.08 59.08 C317.08 55.77 319.77 53.08 323.08 53.08 C326.39 53.08 329.08 55.77 329.08 59.08 C329.08 62.39 326.39 65.08 323.08 65.08 C319.77 65.08 317.08 62.39 317.08 59.08 Z" fill="#CBD5E1" stroke="#334155" stroke-width="1.2"/>
<path id="turkey_minerals_v1::mineral_deposit::demir_divrigi" d="M629.90 214.15 C629.90 210.84 632.59 208.15 635.90 208.15 C639.21 208.15 641.90 210.84 641.90 214.15 C641.90 217.46 639.21 220.15 635.90 220.15 C632.59 220.15 629.90 217.46 629.90 214.15 Z" fill="#CBD5E1" stroke="#334155" stroke-width="1.2"/>
<path id="turkey_minerals_v1::mineral_deposit::bakir_murgul" d="M819.64 73.85 C819.64 70.54 822.33 67.85 825.64 67.85 C828.95 67.85 831.64 70.54 831.64 73.85 C831.64 77.16 828.95 79.85 825.64 79.85 C822.33 79.85 819.64 77.16 819.64 73.85 Z" fill="#CBD5E1" stroke="#334155" stroke-width="1.2"/>
<path id="turkey_minerals_v1::mineral_deposit::krom_elazig" d="M696.56 265.85 C696.56 262.54 699.25 259.85 702.56 259.85 C705.87 259.85 708.56 262.54 708.56 265.85 C708.56 269.16 705.87 271.85 702.56 271.85 C699.25 271.85 696.56 269.16 696.56 265.85 Z" fill="#CBD5E1" stroke="#334155" stroke-width="1.2"/>
<path id="turkey_minerals_v1::mineral_deposit::petrol_batman" d="M794.00 324.92 C794.00 321.61 796.69 318.92 800.00 318.92 C803.31 318.92 806.00 321.61 806.00 324.92 C806.00 328.23 803.31 330.92 800.00 330.92 C796.69 330.92 794.00 328.23 794.00 324.92 Z" fill="#CBD5E1" stroke="#334155" stroke-width="1.2"/>
<path id="turkey_minerals_v1::mineral_deposit::dogalgaz_trakya" d="M70.92 73.85 C70.92 70.54 73.61 67.85 76.92 67.85 C80.23 67.85 82.92 70.54 82.92 73.85 C82.92 77.16 80.23 79.85 76.92 79.85 C73.61 79.85 70.92 77.16 70.92 73.85 Z" fill="#CBD5E1" stroke="#334155" stroke-width="1.2"/>
<path id="turkey_minerals_v1::mineral_deposit::altin_bergama" d="M81.18 236.31 C81.18 233.00 83.87 230.31 87.18 230.31 C90.49 230.31 93.18 233.00 93.18 236.31 C93.18 239.62 90.49 242.31 87.18 242.31 C83.87 242.31 81.18 239.62 81.18 236.31 Z" fill="#CBD5E1" stroke="#334155" stroke-width="1.2"/>
<path id="turkey_minerals_v1::mineral_deposit::gumus_gumushane" d="M711.95 132.92 C711.95 129.61 714.64 126.92 717.95 126.92 C721.26 126.92 723.95 129.61 723.95 132.92 C723.95 136.23 721.26 138.92 717.95 138.92 C714.64 138.92 711.95 136.23 711.95 132.92 Z" fill="#CBD5E1" stroke="#334155" stroke-width="1.2"/>
<path id="turkey_minerals_v1::mineral_deposit::mermer_afyon" d="M250.41 258.46 C250.41 255.15 253.10 252.46 256.41 252.46 C259.72 252.46 262.41 255.15 262.41 258.46 C262.41 261.77 259.72 264.46 256.41 264.46 C253.10 264.46 250.41 261.77 250.41 258.46 Z" fill="#CBD5E1" stroke="#334155" stroke-width="1.2"/>
<path id="turkey_minerals_v1::mineral_deposit::pomza_nevsehir" d="M465.79 273.23 C465.79 269.92 468.48 267.23 471.79 267.23 C475.10 267.23 477.79 269.92 477.79 273.23 C477.79 276.54 475.10 279.23 471.79 279.23 C468.48 279.23 465.79 276.54 465.79 273.23 Z" fill="#CBD5E1" stroke="#334155" stroke-width="1.2"/>
</svg>